# Blender 5.1.2
# www.blender.org
mtllib brade.mtl
o 円柱
v 0.000000 0.000149 -0.000137
v 0.000000 0.014247 -0.000137
v 0.000027 0.000149 -0.000134
v 0.000027 0.014247 -0.000134
v 0.000052 0.000149 -0.000127
v 0.000052 0.014247 -0.000127
v 0.000076 0.000149 -0.000114
v 0.000076 0.014247 -0.000114
v 0.000097 0.000149 -0.000097
v 0.000097 0.014247 -0.000097
v 0.000114 0.000149 -0.000076
v 0.000114 0.014247 -0.000076
v 0.000127 0.000149 -0.000052
v 0.000127 0.014247 -0.000052
v 0.000134 0.000149 -0.000027
v 0.000134 0.014247 -0.000027
v 0.000137 0.000149 0.000000
v 0.000137 0.014247 0.000000
v 0.000134 0.000149 0.000027
v 0.000134 0.014247 0.000027
v 0.000127 0.000149 0.000052
v 0.000127 0.014247 0.000052
v 0.000114 0.000149 0.000076
v 0.000114 0.014247 0.000076
v 0.000097 0.000149 0.000097
v 0.000097 0.014247 0.000097
v 0.000076 0.000149 0.000114
v 0.000076 0.014247 0.000114
v 0.000052 0.000149 0.000127
v 0.000052 0.014247 0.000127
v 0.000027 0.000149 0.000134
v 0.000027 0.014247 0.000134
v 0.000000 0.000149 0.000137
v 0.000000 0.014247 0.000137
v -0.000027 0.000149 0.000134
v -0.000027 0.014247 0.000134
v -0.000052 0.000149 0.000127
v -0.000052 0.014247 0.000127
v -0.000076 0.000149 0.000114
v -0.000076 0.014247 0.000114
v -0.000097 0.000149 0.000097
v -0.000097 0.014247 0.000097
v -0.000114 0.000149 0.000076
v -0.000114 0.014247 0.000076
v -0.000127 0.000149 0.000052
v -0.000127 0.014247 0.000052
v -0.000134 0.000149 0.000027
v -0.000134 0.014247 0.000027
v -0.000137 0.000149 0.000000
v -0.000137 0.014247 0.000000
v -0.000134 0.000149 -0.000027
v -0.000134 0.014247 -0.000027
v -0.000127 0.000149 -0.000052
v -0.000127 0.014247 -0.000052
v -0.000114 0.000149 -0.000076
v -0.000114 0.014247 -0.000076
v -0.000097 0.000149 -0.000097
v -0.000097 0.014247 -0.000097
v -0.000076 0.000149 -0.000114
v -0.000076 0.014247 -0.000114
v -0.000052 0.000149 -0.000127
v -0.000052 0.014247 -0.000127
v -0.000027 0.000149 -0.000134
v -0.000027 0.014247 -0.000134
v -0.000136 0.012252 0.003532
v -0.000136 0.127546 0.003532
v -0.000136 0.012252 -0.003532
v -0.000136 0.098959 -0.000449
v 0.000136 0.012252 0.003532
v 0.000136 0.127546 0.003532
v 0.000136 0.012252 -0.003532
v 0.000136 0.098959 -0.000449
v -0.000136 0.062409 -0.002341
v 0.000136 0.062409 -0.002341
v -0.000136 0.008782 0.000000
v 0.000136 0.008782 0.000000
v -0.000136 0.008782 -0.001766
v 0.000136 0.008782 0.001766
v -0.000136 0.008782 0.001766
v 0.000136 0.008782 -0.001766
vn 0.0980 -0.0000 -0.9952
vn 0.2903 -0.0000 -0.9569
vn 0.4714 -0.0000 -0.8819
vn 0.6344 -0.0000 -0.7730
vn 0.7730 -0.0000 -0.6344
vn 0.8819 -0.0000 -0.4714
vn 0.9569 -0.0000 -0.2903
vn 0.9952 -0.0000 -0.0980
vn 0.9952 -0.0000 0.0980
vn 0.9569 -0.0000 0.2903
vn 0.8819 -0.0000 0.4714
vn 0.7730 -0.0000 0.6344
vn 0.6344 -0.0000 0.7730
vn 0.4714 -0.0000 0.8819
vn 0.2903 -0.0000 0.9569
vn 0.0980 -0.0000 0.9952
vn -0.0980 -0.0000 0.9952
vn -0.2903 -0.0000 0.9569
vn -0.4714 -0.0000 0.8819
vn -0.6344 -0.0000 0.7730
vn -0.7730 -0.0000 0.6344
vn -0.8819 -0.0000 0.4714
vn -0.9569 -0.0000 0.2903
vn -0.9952 -0.0000 0.0980
vn -0.9952 -0.0000 -0.0980
vn -0.9569 -0.0000 -0.2903
vn -0.8819 -0.0000 -0.4714
vn -0.7730 -0.0000 -0.6344
vn -0.6344 -0.0000 -0.7730
vn -0.4714 -0.0000 -0.8819
vn -0.0000 1.0000 -0.0000
vn -0.2903 -0.0000 -0.9569
vn -0.0980 -0.0000 -0.9952
vn -0.0000 -1.0000 -0.0000
vn -1.0000 -0.0000 -0.0000
vn -0.0000 -0.1379 0.9904
vn 1.0000 -0.0000 -0.0000
vn -0.0000 -0.0000 -1.0000
vn -0.0000 -0.0517 0.9987
vn -0.0000 -0.0237 0.9997
vn -0.0000 0.4536 -0.8912
vn -0.0000 0.4536 0.8912
vt 0.569645 0.720128
vt 0.569645 1.003508
vt 0.551921 1.003508
vt 0.551921 0.720128
vt 0.534198 1.003508
vt 0.534198 0.720128
vt 0.516475 1.003508
vt 0.516475 0.720128
vt 0.498752 1.003508
vt 0.498752 0.720128
vt 0.481028 1.003508
vt 0.481028 0.720128
vt 0.463305 1.003508
vt 0.463305 0.720128
vt 0.445582 1.003508
vt 0.445582 0.720128
vt 0.427859 1.003508
vt 0.427859 0.720128
vt 0.410136 1.003508
vt 0.410136 0.720128
vt 0.392412 1.003508
vt 0.392412 0.720128
vt 0.374689 1.003508
vt 0.374689 0.720128
vt 0.356966 1.003508
vt 0.356966 0.720128
vt 0.339243 1.003508
vt 0.339243 0.720128
vt 0.321519 1.003508
vt 0.321519 0.720128
vt 0.303796 1.003508
vt 0.303796 0.720128
vt 0.286073 1.003508
vt 0.286073 0.720128
vt 0.268350 1.003508
vt 0.268350 0.720128
vt 0.250627 1.003508
vt 0.250627 0.720128
vt 0.232903 1.003508
vt 0.232903 0.720128
vt 0.215180 1.003508
vt 0.215180 0.720128
vt 0.197457 1.003508
vt 0.197457 0.720128
vt 0.179734 1.003508
vt 0.179734 0.720128
vt 0.162010 1.003508
vt 0.162010 0.720128
vt 0.144287 1.003508
vt 0.144287 0.720128
vt 0.126564 1.003508
vt 0.126564 0.720128
vt 0.108841 1.003508
vt 0.108841 0.720128
vt 0.091117 1.003508
vt 0.091117 0.720128
vt 0.073394 1.003508
vt 0.073394 0.720128
vt 0.055671 1.003508
vt 0.055671 0.720128
vt 0.037948 1.003508
vt 0.037948 0.720128
vt 0.170842 0.711847
vt 0.144287 0.714460
vt 0.117732 0.711847
vt 0.092198 0.704106
vt 0.068666 0.691536
vt 0.048040 0.674620
vt 0.031112 0.654008
vt 0.018534 0.630491
vt 0.010788 0.604974
vt 0.008173 0.578438
vt 0.010788 0.551901
vt 0.018534 0.526384
vt 0.031112 0.502867
vt 0.048040 0.482255
vt 0.068666 0.465339
vt 0.092198 0.452769
vt 0.117732 0.445029
vt 0.144287 0.442415
vt 0.170842 0.445029
vt 0.196376 0.452769
vt 0.219908 0.465339
vt 0.240535 0.482255
vt 0.257462 0.502867
vt 0.270040 0.526384
vt 0.277786 0.551901
vt 0.280402 0.578438
vt 0.277786 0.604974
vt 0.270040 0.630491
vt 0.257462 0.654008
vt 0.240535 0.674620
vt 0.219908 0.691536
vt 0.196376 0.704106
vt 0.020225 1.003508
vt 0.020225 0.720128
vt 0.002501 1.003508
vt 0.002501 0.720128
vt 0.427859 0.714460
vt 0.454413 0.711847
vt 0.479948 0.704106
vt 0.503480 0.691536
vt 0.524106 0.674620
vt 0.541034 0.654008
vt 0.553612 0.630491
vt 0.561358 0.604974
vt 0.563973 0.578438
vt 0.561358 0.551901
vt 0.553612 0.526384
vt 0.541034 0.502867
vt 0.524106 0.482255
vt 0.503480 0.465339
vt 0.479948 0.452769
vt 0.454413 0.445029
vt 0.427859 0.442415
vt 0.401304 0.445029
vt 0.375770 0.452769
vt 0.352238 0.465339
vt 0.331611 0.482255
vt 0.314684 0.502867
vt 0.302106 0.526384
vt 0.294360 0.551901
vt 0.291744 0.578438
vt 0.294360 0.604974
vt 0.302106 0.630491
vt 0.314684 0.654008
vt 0.331611 0.674620
vt 0.352238 0.691536
vt 0.375770 0.704106
vt 0.401304 0.711847
vt 0.518044 0.150015
vt 0.544821 0.186221
vt 0.590783 0.235391
vt 0.496891 0.218148
vt 0.388002 0.193229
vt 0.318164 0.157693
vt 0.316439 0.030837
vt 0.427856 0.008624
vt 0.725385 0.453886
vt 0.686857 0.453886
vt 0.901995 0.917892
vt 0.940523 0.917892
vt 0.309285 0.391748
vt 0.222002 0.335030
vt 0.308305 0.176798
vt 0.381715 0.209130
vt 0.493424 0.227296
vt 0.587190 0.245696
vt 0.516370 0.272455
vt 0.425827 0.277633
vt 0.665680 0.979605
vt 0.665680 0.662567
vt 0.627153 0.662567
vt 0.627153 0.979605
vt 0.925122 0.260217
vt 0.963650 0.260217
vt 0.639672 0.428801
vt 0.678200 0.428801
vt 0.269192 0.132415
vt 0.290630 0.132415
s 0
usemtl 
f 1/1/1 2/2/1 4/3/1 3/4/1
f 3/4/2 4/3/2 6/5/2 5/6/2
f 5/6/3 6/5/3 8/7/3 7/8/3
f 7/8/4 8/7/4 10/9/4 9/10/4
f 9/10/5 10/9/5 12/11/5 11/12/5
f 11/12/6 12/11/6 14/13/6 13/14/6
f 13/14/7 14/13/7 16/15/7 15/16/7
f 15/16/8 16/15/8 18/17/8 17/18/8
f 17/18/9 18/17/9 20/19/9 19/20/9
f 19/20/10 20/19/10 22/21/10 21/22/10
f 21/22/11 22/21/11 24/23/11 23/24/11
f 23/24/12 24/23/12 26/25/12 25/26/12
f 25/26/13 26/25/13 28/27/13 27/28/13
f 27/28/14 28/27/14 30/29/14 29/30/14
f 29/30/15 30/29/15 32/31/15 31/32/15
f 31/32/16 32/31/16 34/33/16 33/34/16
f 33/34/17 34/33/17 36/35/17 35/36/17
f 35/36/18 36/35/18 38/37/18 37/38/18
f 37/38/19 38/37/19 40/39/19 39/40/19
f 39/40/20 40/39/20 42/41/20 41/42/20
f 41/42/21 42/41/21 44/43/21 43/44/21
f 43/44/22 44/43/22 46/45/22 45/46/22
f 45/46/23 46/45/23 48/47/23 47/48/23
f 47/48/24 48/47/24 50/49/24 49/50/24
f 49/50/25 50/49/25 52/51/25 51/52/25
f 51/52/26 52/51/26 54/53/26 53/54/26
f 53/54/27 54/53/27 56/55/27 55/56/27
f 55/56/28 56/55/28 58/57/28 57/58/28
f 57/58/29 58/57/29 60/59/29 59/60/29
f 59/60/30 60/59/30 62/61/30 61/62/30
f 4/63/31 2/64/31 64/65/31 62/66/31 60/67/31 58/68/31 56/69/31 54/70/31 52/71/31 50/72/31 48/73/31 46/74/31 44/75/31 42/76/31 40/77/31 38/78/31 36/79/31 34/80/31 32/81/31 30/82/31 28/83/31 26/84/31 24/85/31 22/86/31 20/87/31 18/88/31 16/89/31 14/90/31 12/91/31 10/92/31 8/93/31 6/94/31
f 61/62/32 62/61/32 64/95/32 63/96/32
f 63/96/33 64/95/33 2/97/33 1/98/33
f 1/99/34 3/100/34 5/101/34 7/102/34 9/103/34 11/104/34 13/105/34 15/106/34 17/107/34 19/108/34 21/109/34 23/110/34 25/111/34 27/112/34 29/113/34 31/114/34 33/115/34 35/116/34 37/117/34 39/118/34 41/119/34 43/120/34 45/121/34 47/122/34 49/123/34 51/124/34 53/125/34 55/126/34 57/127/34 59/128/34 61/129/34 63/130/34
usemtl Material
f 72/131/35 74/132/35 71/133/35 80/134/35 76/135/35 78/136/35 69/137/35 70/138/35
f 70/139/36 66/140/36 68/141/36 72/142/36
f 66/143/37 65/144/37 79/145/37 75/146/37 77/147/37 67/148/37 73/149/37 68/150/37
f 70/151/38 69/152/38 65/153/38 66/154/38
f 68/141/39 73/155/39 74/156/39 72/142/39
f 73/155/40 67/157/40 71/158/40 74/156/40
f 79/145/31 78/136/31 76/135/31 75/146/31
f 65/159/41 69/160/41 78/136/41 79/145/41
f 80/134/31 77/147/31 75/146/31 76/135/31
f 67/148/42 77/147/42 80/134/42 71/133/42
