{
  "asset": {
    "version": "2.0",
    "generator": "CG2_DirectX enemy family generator"
  },
  "scene": 0,
  "scenes": [
    {
      "nodes": [
        0
      ]
    }
  ],
  "nodes": [
    {
      "name": "EnemyBomber",
      "mesh": 0
    }
  ],
  "meshes": [
    {
      "name": "EnemyBomberMesh",
      "primitives": [
        {
          "attributes": {
            "POSITION": 0,
            "NORMAL": 1,
            "TEXCOORD_0": 2
          },
          "indices": 3,
          "material": 0
        }
      ]
    }
  ],
  "materials": [
    {
      "name": "TintableEnemy",
      "pbrMetallicRoughness": {
        "baseColorTexture": {
          "index": 0
        },
        "metallicFactor": 0,
        "roughnessFactor": 0.78
      }
    }
  ],
  "textures": [
    {
      "source": 0
    }
  ],
  "images": [
    {
      "uri": "enemy_bomber_texture.bmp"
    }
  ],
  "buffers": [
    {
      "uri": "data:application/octet-stream;base64,",
      "byteLength": 11968
    }
  ],
  "bufferViews": [
    {
      "buffer": 0,
      "byteOffset": 0,
      "byteLength": 3516,
      "target": 34962
    },
    {
      "buffer": 0,
      "byteOffset": 3516,
      "byteLength": 3516,
      "target": 34962
    },
    {
      "buffer": 0,
      "byteOffset": 7032,
      "byteLength": 2344,
      "target": 34962
    },
    {
      "buffer": 0,
      "byteOffset": 9376,
      "byteLength": 2592,
      "target": 34963
    }
  ],
  "accessors": [
    {
      "bufferView": 0,
      "componentType": 5126,
      "count": 293,
      "type": "VEC3",
      "min": [
        -1,
        -0.78,
        -1.02
      ],
      "max": [
        1,
        1.05,
        0.6216506350946109
      ]
    },
    {
      "bufferView": 1,
      "componentType": 5126,
      "count": 293,
      "type": "VEC3"
    },
    {
      "bufferView": 2,
      "componentType": 5126,
      "count": 293,
      "type": "VEC2"
    },
    {
      "bufferView": 3,
      "componentType": 5123,
      "count": 1296,
      "type": "SCALAR"
    }
  ]
}
