{
  "asset": {
    "version": "2.0",
    "generator": "CG2_DirectX enemy family generator"
  },
  "scene": 0,
  "scenes": [
    {
      "nodes": [
        0
      ]
    }
  ],
  "nodes": [
    {
      "name": "EnemyChaser",
      "mesh": 0
    }
  ],
  "meshes": [
    {
      "name": "EnemyChaserMesh",
      "primitives": [
        {
          "attributes": {
            "POSITION": 0,
            "NORMAL": 1,
            "TEXCOORD_0": 2
          },
          "indices": 3,
          "material": 0
        }
      ]
    }
  ],
  "materials": [
    {
      "name": "TintableEnemy",
      "pbrMetallicRoughness": {
        "baseColorTexture": {
          "index": 0
        },
        "metallicFactor": 0,
        "roughnessFactor": 0.78
      }
    }
  ],
  "textures": [
    {
      "source": 0
    }
  ],
  "images": [
    {
      "uri": "enemy_chaser_texture.bmp"
    }
  ],
  "buffers": [
    {
      "uri": "data:application/octet-stream;base64,",
      "byteLength": 11312
    }
  ],
  "bufferViews": [
    {
      "buffer": 0,
      "byteOffset": 0,
      "byteLength": 3324,
      "target": 34962
    },
    {
      "buffer": 0,
      "byteOffset": 3324,
      "byteLength": 3324,
      "target": 34962
    },
    {
      "buffer": 0,
      "byteOffset": 6648,
      "byteLength": 2216,
      "target": 34962
    },
    {
      "buffer": 0,
      "byteOffset": 8864,
      "byteLength": 2448,
      "target": 34963
    }
  ],
  "accessors": [
    {
      "bufferView": 0,
      "componentType": 5126,
      "count": 277,
      "type": "VEC3",
      "min": [
        -0.76,
        -0.91,
        -0.55
      ],
      "max": [
        0.76,
        0.88,
        0.6266506350946109
      ]
    },
    {
      "bufferView": 1,
      "componentType": 5126,
      "count": 277,
      "type": "VEC3"
    },
    {
      "bufferView": 2,
      "componentType": 5126,
      "count": 277,
      "type": "VEC2"
    },
    {
      "bufferView": 3,
      "componentType": 5123,
      "count": 1224,
      "type": "SCALAR"
    }
  ]
}
