{
  "asset": {
    "version": "2.0",
    "generator": "CG2_DirectX enemy family generator"
  },
  "scene": 0,
  "scenes": [
    {
      "nodes": [
        0
      ]
    }
  ],
  "nodes": [
    {
      "name": "EnemyShooter",
      "mesh": 0
    }
  ],
  "meshes": [
    {
      "name": "EnemyShooterMesh",
      "primitives": [
        {
          "attributes": {
            "POSITION": 0,
            "NORMAL": 1,
            "TEXCOORD_0": 2
          },
          "indices": 3,
          "material": 0
        }
      ]
    }
  ],
  "materials": [
    {
      "name": "TintableEnemy",
      "pbrMetallicRoughness": {
        "baseColorTexture": {
          "index": 0
        },
        "metallicFactor": 0,
        "roughnessFactor": 0.78
      }
    }
  ],
  "textures": [
    {
      "source": 0
    }
  ],
  "images": [
    {
      "uri": "enemy_shooter_texture.bmp"
    }
  ],
  "buffers": [
    {
      "uri": "data:application/octet-stream;base64,",
      "byteLength": 15352
    }
  ],
  "bufferViews": [
    {
      "buffer": 0,
      "byteOffset": 0,
      "byteLength": 4488,
      "target": 34962
    },
    {
      "buffer": 0,
      "byteOffset": 4488,
      "byteLength": 4488,
      "target": 34962
    },
    {
      "buffer": 0,
      "byteOffset": 8976,
      "byteLength": 2992,
      "target": 34962
    },
    {
      "buffer": 0,
      "byteOffset": 11968,
      "byteLength": 3384,
      "target": 34963
    }
  ],
  "accessors": [
    {
      "bufferView": 0,
      "componentType": 5126,
      "count": 374,
      "type": "VEC3",
      "min": [
        -0.9,
        -0.5499999999999999,
        -0.5700000000000001
      ],
      "max": [
        0.9,
        0.63,
        0.82
      ]
    },
    {
      "bufferView": 1,
      "componentType": 5126,
      "count": 374,
      "type": "VEC3"
    },
    {
      "bufferView": 2,
      "componentType": 5126,
      "count": 374,
      "type": "VEC2"
    },
    {
      "bufferView": 3,
      "componentType": 5123,
      "count": 1692,
      "type": "SCALAR"
    }
  ]
}
