{
  "asset": {
    "version": "2.0",
    "generator": "CG2_DirectX magatama generator"
  },
  "scene": 0,
  "scenes": [
    {
      "nodes": [
        0
      ]
    }
  ],
  "nodes": [
    {
      "name": "Magatama",
      "mesh": 0
    }
  ],
  "meshes": [
    {
      "name": "MagatamaMesh",
      "primitives": [
        {
          "attributes": {
            "POSITION": 0,
            "NORMAL": 1,
            "TEXCOORD_0": 2
          },
          "indices": 3,
          "material": 0
        }
      ]
    }
  ],
  "materials": [
    {
      "name": "TintableMagatama",
      "pbrMetallicRoughness": {
        "baseColorTexture": {
          "index": 0
        },
        "metallicFactor": 0.08,
        "roughnessFactor": 0.42
      }
    }
  ],
  "textures": [
    {
      "source": 0
    }
  ],
  "images": [
    {
      "uri": "magatama_palette.bmp"
    }
  ],
  "buffers": [
    {
      "uri": "data:application/octet-stream;base64,",
      "byteLength": 17440
    }
  ],
  "bufferViews": [
    {
      "buffer": 0,
      "byteOffset": 0,
      "byteLength": 4992,
      "target": 34962
    },
    {
      "buffer": 0,
      "byteOffset": 4992,
      "byteLength": 4992,
      "target": 34962
    },
    {
      "buffer": 0,
      "byteOffset": 9984,
      "byteLength": 3328,
      "target": 34962
    },
    {
      "buffer": 0,
      "byteOffset": 13312,
      "byteLength": 4128,
      "target": 34963
    }
  ],
  "accessors": [
    {
      "bufferView": 0,
      "componentType": 5126,
      "count": 416,
      "type": "VEC3",
      "min": [
        -0.4844563382614834,
        -0.324,
        -0.6596724139496961
      ],
      "max": [
        0.6438461449383657,
        0.324,
        0.5738200354950242
      ]
    },
    {
      "bufferView": 1,
      "componentType": 5126,
      "count": 416,
      "type": "VEC3"
    },
    {
      "bufferView": 2,
      "componentType": 5126,
      "count": 416,
      "type": "VEC2"
    },
    {
      "bufferView": 3,
      "componentType": 5123,
      "count": 2064,
      "type": "SCALAR"
    }
  ]
}
