{
	"asset":{
		"generator":"Khronos glTF Blender I/O v5.1.20",
		"version":"2.0"
	},
	"scene":0,
	"scenes":[
		{
			"name":"Scene",
			"nodes":[
				9
			]
		}
	],
	"nodes":[
		{
			"name":"head",
			"translation":[
				0,
				0.9699999094009399,
				0
			]
		},
		{
			"name":"arm.L",
			"rotation":[
				-0.8885078430175781,
				0.3147405982017517,
				0.31474053859710693,
				0.1114921122789383
			],
			"scale":[
				1.0000007152557373,
				1.0000003576278687,
				1
			],
			"translation":[
				-0.3400000035762787,
				0.7599999904632568,
				0
			]
		},
		{
			"name":"arm.R",
			"rotation":[
				-0.8885078430175781,
				-0.3147405982017517,
				-0.31474053859710693,
				0.1114921122789383
			],
			"scale":[
				1.0000007152557373,
				1.0000003576278687,
				1
			],
			"translation":[
				0.3400000035762787,
				0.7599999904632568,
				0
			]
		},
		{
			"children":[
				0,
				1,
				2
			],
			"name":"spine",
			"translation":[
				0,
				0.46000003814697266,
				0
			]
		},
		{
			"name":"leg.L",
			"rotation":[
				1,
				0,
				-4.371138828673793e-08,
				0
			],
			"translation":[
				-0.20000000298023224,
				0.07999998331069946,
				0
			]
		},
		{
			"name":"leg.R",
			"rotation":[
				1,
				0,
				-4.371138828673793e-08,
				0
			],
			"translation":[
				0.20000000298023224,
				0.07999998331069946,
				0
			]
		},
		{
			"children":[
				3,
				4,
				5
			],
			"name":"pelvis",
			"translation":[
				0,
				0.6200000047683716,
				0
			]
		},
		{
			"children":[
				6
			],
			"name":"root"
		},
		{
			"mesh":0,
			"name":"Doppelganger",
			"skin":0
		},
		{
			"children":[
				8,
				7
			],
			"name":"Doppelganger_Rig"
		}
	],
	"animations":[
		{
			"channels":[
				{
					"sampler":0,
					"target":{
						"node":7,
						"path":"translation"
					}
				},
				{
					"sampler":1,
					"target":{
						"node":7,
						"path":"rotation"
					}
				},
				{
					"sampler":2,
					"target":{
						"node":7,
						"path":"scale"
					}
				},
				{
					"sampler":3,
					"target":{
						"node":6,
						"path":"translation"
					}
				},
				{
					"sampler":4,
					"target":{
						"node":6,
						"path":"rotation"
					}
				},
				{
					"sampler":5,
					"target":{
						"node":6,
						"path":"scale"
					}
				},
				{
					"sampler":6,
					"target":{
						"node":3,
						"path":"translation"
					}
				},
				{
					"sampler":7,
					"target":{
						"node":3,
						"path":"rotation"
					}
				},
				{
					"sampler":8,
					"target":{
						"node":3,
						"path":"scale"
					}
				},
				{
					"sampler":9,
					"target":{
						"node":0,
						"path":"translation"
					}
				},
				{
					"sampler":10,
					"target":{
						"node":0,
						"path":"rotation"
					}
				},
				{
					"sampler":11,
					"target":{
						"node":0,
						"path":"scale"
					}
				},
				{
					"sampler":12,
					"target":{
						"node":1,
						"path":"translation"
					}
				},
				{
					"sampler":13,
					"target":{
						"node":1,
						"path":"rotation"
					}
				},
				{
					"sampler":14,
					"target":{
						"node":1,
						"path":"scale"
					}
				},
				{
					"sampler":15,
					"target":{
						"node":2,
						"path":"translation"
					}
				},
				{
					"sampler":16,
					"target":{
						"node":2,
						"path":"rotation"
					}
				},
				{
					"sampler":17,
					"target":{
						"node":2,
						"path":"scale"
					}
				},
				{
					"sampler":18,
					"target":{
						"node":4,
						"path":"translation"
					}
				},
				{
					"sampler":19,
					"target":{
						"node":4,
						"path":"rotation"
					}
				},
				{
					"sampler":20,
					"target":{
						"node":4,
						"path":"scale"
					}
				},
				{
					"sampler":21,
					"target":{
						"node":5,
						"path":"translation"
					}
				},
				{
					"sampler":22,
					"target":{
						"node":5,
						"path":"rotation"
					}
				},
				{
					"sampler":23,
					"target":{
						"node":5,
						"path":"scale"
					}
				}
			],
			"name":"\u6b69\u884c",
			"samplers":[
				{
					"input":13,
					"interpolation":"STEP",
					"output":14
				},
				{
					"input":13,
					"interpolation":"STEP",
					"output":15
				},
				{
					"input":13,
					"interpolation":"STEP",
					"output":16
				},
				{
					"input":13,
					"interpolation":"STEP",
					"output":17
				},
				{
					"input":18,
					"interpolation":"LINEAR",
					"output":19
				},
				{
					"input":13,
					"interpolation":"STEP",
					"output":16
				},
				{
					"input":13,
					"interpolation":"STEP",
					"output":20
				},
				{
					"input":13,
					"interpolation":"STEP",
					"output":15
				},
				{
					"input":13,
					"interpolation":"STEP",
					"output":16
				},
				{
					"input":13,
					"interpolation":"STEP",
					"output":21
				},
				{
					"input":13,
					"interpolation":"STEP",
					"output":15
				},
				{
					"input":13,
					"interpolation":"STEP",
					"output":16
				},
				{
					"input":13,
					"interpolation":"STEP",
					"output":22
				},
				{
					"input":18,
					"interpolation":"LINEAR",
					"output":23
				},
				{
					"input":13,
					"interpolation":"STEP",
					"output":24
				},
				{
					"input":13,
					"interpolation":"STEP",
					"output":25
				},
				{
					"input":18,
					"interpolation":"LINEAR",
					"output":26
				},
				{
					"input":13,
					"interpolation":"STEP",
					"output":27
				},
				{
					"input":13,
					"interpolation":"STEP",
					"output":28
				},
				{
					"input":18,
					"interpolation":"LINEAR",
					"output":29
				},
				{
					"input":13,
					"interpolation":"STEP",
					"output":30
				},
				{
					"input":13,
					"interpolation":"STEP",
					"output":31
				},
				{
					"input":18,
					"interpolation":"LINEAR",
					"output":32
				},
				{
					"input":13,
					"interpolation":"STEP",
					"output":30
				}
			]
		}
	],
	"materials":[
		{
			"doubleSided":true,
			"name":"Doppelganger_FaceUV",
			"pbrMetallicRoughness":{
				"baseColorTexture":{
					"index":0
				},
				"metallicFactor":0,
				"roughnessFactor":0.8999999761581421
			}
		},
		{
			"doubleSided":true,
			"name":"\u8863\u88c5\u88c5\u98fe_UV",
			"pbrMetallicRoughness":{
				"baseColorTexture":{
					"index":1
				},
				"metallicFactor":0,
				"roughnessFactor":0.8199999928474426
			}
		}
	],
	"meshes":[
		{
			"name":"Doppelganger_Mesh",
			"primitives":[
				{
					"attributes":{
						"POSITION":0,
						"NORMAL":1,
						"TEXCOORD_0":2,
						"JOINTS_0":3,
						"WEIGHTS_0":4
					},
					"indices":5,
					"material":0
				},
				{
					"attributes":{
						"POSITION":6,
						"NORMAL":7,
						"TEXCOORD_0":8,
						"JOINTS_0":9,
						"WEIGHTS_0":10
					},
					"indices":11,
					"material":1
				}
			]
		}
	],
	"textures":[
		{
			"sampler":0,
			"source":0
		},
		{
			"sampler":1,
			"source":0
		}
	],
	"images":[
		{
			"mimeType":"image/png",
			"name":"doppelganger_texture",
			"uri":"doppelganger_texture.png"
		}
	],
	"skins":[
		{
			"inverseBindMatrices":12,
			"joints":[
				7,
				6,
				3,
				0,
				1,
				2,
				4,
				5
			],
			"name":"Doppelganger_Rig"
		}
	],
	"accessors":[
		{
			"bufferView":0,
			"componentType":5126,
			"count":146,
			"max":[
				0.5199999809265137,
				3.0399999618530273,
				0.49000000953674316
			],
			"min":[
				-0.5199999809265137,
				2,
				-0.44999998807907104
			],
			"type":"VEC3"
		},
		{
			"bufferView":1,
			"componentType":5126,
			"count":146,
			"type":"VEC3"
		},
		{
			"bufferView":2,
			"componentType":5126,
			"count":146,
			"type":"VEC2"
		},
		{
			"bufferView":3,
			"componentType":5121,
			"count":146,
			"type":"VEC4"
		},
		{
			"bufferView":4,
			"componentType":5126,
			"count":146,
			"type":"VEC4"
		},
		{
			"bufferView":5,
			"componentType":5123,
			"count":864,
			"type":"SCALAR"
		},
		{
			"bufferView":6,
			"componentType":5126,
			"count":628,
			"max":[
				1.0932576656341553,
				3.5399999618530273,
				0.5184000134468079
			],
			"min":[
				-1.0932576656341553,
				0.019999999552965164,
				-0.6200000047683716
			],
			"type":"VEC3"
		},
		{
			"bufferView":7,
			"componentType":5126,
			"count":628,
			"type":"VEC3"
		},
		{
			"bufferView":8,
			"componentType":5126,
			"count":628,
			"type":"VEC2"
		},
		{
			"bufferView":9,
			"componentType":5121,
			"count":628,
			"type":"VEC4"
		},
		{
			"bufferView":10,
			"componentType":5126,
			"count":628,
			"type":"VEC4"
		},
		{
			"bufferView":11,
			"componentType":5123,
			"count":3168,
			"type":"SCALAR"
		},
		{
			"bufferView":12,
			"componentType":5126,
			"count":8,
			"type":"MAT4"
		},
		{
			"bufferView":13,
			"componentType":5126,
			"count":2,
			"max":[
				1.0416666666666667
			],
			"min":[
				0.041666666666666664
			],
			"type":"SCALAR"
		},
		{
			"bufferView":14,
			"componentType":5126,
			"count":2,
			"type":"VEC3"
		},
		{
			"bufferView":15,
			"componentType":5126,
			"count":2,
			"type":"VEC4"
		},
		{
			"bufferView":16,
			"componentType":5126,
			"count":2,
			"type":"VEC3"
		},
		{
			"bufferView":17,
			"componentType":5126,
			"count":2,
			"type":"VEC3"
		},
		{
			"bufferView":18,
			"componentType":5126,
			"count":25,
			"max":[
				1.0416666666666667
			],
			"min":[
				0.041666666666666664
			],
			"type":"SCALAR"
		},
		{
			"bufferView":19,
			"componentType":5126,
			"count":25,
			"type":"VEC4"
		},
		{
			"bufferView":20,
			"componentType":5126,
			"count":2,
			"type":"VEC3"
		},
		{
			"bufferView":21,
			"componentType":5126,
			"count":2,
			"type":"VEC3"
		},
		{
			"bufferView":22,
			"componentType":5126,
			"count":2,
			"type":"VEC3"
		},
		{
			"bufferView":23,
			"componentType":5126,
			"count":25,
			"type":"VEC4"
		},
		{
			"bufferView":24,
			"componentType":5126,
			"count":2,
			"type":"VEC3"
		},
		{
			"bufferView":25,
			"componentType":5126,
			"count":2,
			"type":"VEC3"
		},
		{
			"bufferView":26,
			"componentType":5126,
			"count":25,
			"type":"VEC4"
		},
		{
			"bufferView":27,
			"componentType":5126,
			"count":2,
			"type":"VEC3"
		},
		{
			"bufferView":28,
			"componentType":5126,
			"count":2,
			"type":"VEC3"
		},
		{
			"bufferView":29,
			"componentType":5126,
			"count":25,
			"type":"VEC4"
		},
		{
			"bufferView":30,
			"componentType":5126,
			"count":2,
			"type":"VEC3"
		},
		{
			"bufferView":31,
			"componentType":5126,
			"count":2,
			"type":"VEC3"
		},
		{
			"bufferView":32,
			"componentType":5126,
			"count":25,
			"type":"VEC4"
		}
	],
	"bufferViews":[
		{
			"buffer":0,
			"byteLength":1752,
			"byteOffset":0,
			"target":34962
		},
		{
			"buffer":0,
			"byteLength":1752,
			"byteOffset":1752,
			"target":34962
		},
		{
			"buffer":0,
			"byteLength":1168,
			"byteOffset":3504,
			"target":34962
		},
		{
			"buffer":0,
			"byteLength":584,
			"byteOffset":4672,
			"target":34962
		},
		{
			"buffer":0,
			"byteLength":2336,
			"byteOffset":5256,
			"target":34962
		},
		{
			"buffer":0,
			"byteLength":1728,
			"byteOffset":7592,
			"target":34963
		},
		{
			"buffer":0,
			"byteLength":7536,
			"byteOffset":9320,
			"target":34962
		},
		{
			"buffer":0,
			"byteLength":7536,
			"byteOffset":16856,
			"target":34962
		},
		{
			"buffer":0,
			"byteLength":5024,
			"byteOffset":24392,
			"target":34962
		},
		{
			"buffer":0,
			"byteLength":2512,
			"byteOffset":29416,
			"target":34962
		},
		{
			"buffer":0,
			"byteLength":10048,
			"byteOffset":31928,
			"target":34962
		},
		{
			"buffer":0,
			"byteLength":6336,
			"byteOffset":41976,
			"target":34963
		},
		{
			"buffer":0,
			"byteLength":512,
			"byteOffset":48312
		},
		{
			"buffer":0,
			"byteLength":8,
			"byteOffset":48824
		},
		{
			"buffer":0,
			"byteLength":24,
			"byteOffset":48832
		},
		{
			"buffer":0,
			"byteLength":32,
			"byteOffset":48856
		},
		{
			"buffer":0,
			"byteLength":24,
			"byteOffset":48888
		},
		{
			"buffer":0,
			"byteLength":24,
			"byteOffset":48912
		},
		{
			"buffer":0,
			"byteLength":100,
			"byteOffset":48936
		},
		{
			"buffer":0,
			"byteLength":400,
			"byteOffset":49036
		},
		{
			"buffer":0,
			"byteLength":24,
			"byteOffset":49436
		},
		{
			"buffer":0,
			"byteLength":24,
			"byteOffset":49460
		},
		{
			"buffer":0,
			"byteLength":24,
			"byteOffset":49484
		},
		{
			"buffer":0,
			"byteLength":400,
			"byteOffset":49508
		},
		{
			"buffer":0,
			"byteLength":24,
			"byteOffset":49908
		},
		{
			"buffer":0,
			"byteLength":24,
			"byteOffset":49932
		},
		{
			"buffer":0,
			"byteLength":400,
			"byteOffset":49956
		},
		{
			"buffer":0,
			"byteLength":24,
			"byteOffset":50356
		},
		{
			"buffer":0,
			"byteLength":24,
			"byteOffset":50380
		},
		{
			"buffer":0,
			"byteLength":400,
			"byteOffset":50404
		},
		{
			"buffer":0,
			"byteLength":24,
			"byteOffset":50804
		},
		{
			"buffer":0,
			"byteLength":24,
			"byteOffset":50828
		},
		{
			"buffer":0,
			"byteLength":400,
			"byteOffset":50852
		}
	],
	"samplers":[
		{
			"magFilter":9729,
			"minFilter":9987
		},
		{
			"magFilter":9728,
			"minFilter":9984
		}
	],
	"buffers":[
		{
			"byteLength":51252,
			"uri":"doppelganger.bin"
		}
	]
}
