{
	"asset":{
		"generator":"Khronos glTF Blender I/O v5.1.20",
		"version":"2.0"
	},
	"scene":0,
	"scenes":[
		{
			"name":"Scene",
			"nodes":[
				10
			]
		}
	],
	"nodes":[
		{
			"name":"head",
			"rotation":[
				-6.6882788776713095e-15,
				3.552713678800501e-15,
				-1.7260763806730803e-22,
				1
			],
			"translation":[
				2.2284260343436966e-22,
				0.9499998092651367,
				-7.105427357601002e-15
			]
		},
		{
			"name":"arm.L",
			"rotation":[
				-0.9213481545448303,
				0.26919472217559814,
				0.2691946029663086,
				0.07865184545516968
			],
			"scale":[
				0.9999998211860657,
				0.9999998807907104,
				0.9999999403953552
			],
			"translation":[
				-0.3399999141693115,
				0.7400000095367432,
				-1.1637708574596672e-08
			]
		},
		{
			"name":"arm.R",
			"rotation":[
				-0.9213480949401855,
				-0.26919475197792053,
				-0.26919466257095337,
				0.07865186035633087
			],
			"scale":[
				0.9999998211860657,
				0.9999998807907104,
				1
			],
			"translation":[
				0.3399999141693115,
				0.7400000095367432,
				1.1637694363741957e-08
			]
		},
		{
			"children":[
				0,
				1,
				2
			],
			"name":"spine",
			"rotation":[
				3.139645991852443e-15,
				-1.7763568394002505e-15,
				9.027924885563547e-23,
				1
			],
			"translation":[
				-3.931273332811713e-24,
				0.3999999761581421,
				7.560436254440014e-38
			]
		},
		{
			"name":"leg.L",
			"rotation":[
				1,
				1.1760235823117165e-24,
				-7.549790126404332e-08,
				1.3123426910384335e-24
			],
			"translation":[
				-0.1899999976158142,
				0.13999998569488525,
				-6.503421801085096e-09
			]
		},
		{
			"name":"leg.R",
			"rotation":[
				1,
				1.1760235823117165e-24,
				-7.549790126404332e-08,
				1.3123426910384335e-24
			],
			"translation":[
				0.1899999976158142,
				0.13999998569488525,
				6.503425353798775e-09
			]
		},
		{
			"name":"tail",
			"rotation":[
				-0.04099276661872864,
				-0.3790556788444519,
				-0.37905579805374146,
				0.8431803584098816
			],
			"scale":[
				1,
				0.9999999403953552,
				1
			],
			"translation":[
				0.25999999046325684,
				0.16000014543533325,
				-0.3400000035762787
			]
		},
		{
			"children":[
				3,
				4,
				5,
				6
			],
			"name":"pelvis",
			"rotation":[
				2.7946398903755507e-16,
				1.0025483360881847e-23,
				-4.437342591868191e-31,
				1
			],
			"translation":[
				0,
				0.6999999284744263,
				0
			]
		},
		{
			"children":[
				7
			],
			"name":"root",
			"rotation":[
				-8.557136332854043e-09,
				1.7114272665708086e-08,
				-2.928983286277023e-16,
				1
			]
		},
		{
			"mesh":0,
			"name":"\u732b",
			"skin":0
		},
		{
			"children":[
				9,
				8
			],
			"name":"\u732b_\u30ea\u30b0"
		}
	],
	"animations":[
		{
			"channels":[
				{
					"sampler":0,
					"target":{
						"node":8,
						"path":"translation"
					}
				},
				{
					"sampler":1,
					"target":{
						"node":8,
						"path":"rotation"
					}
				},
				{
					"sampler":2,
					"target":{
						"node":8,
						"path":"scale"
					}
				},
				{
					"sampler":3,
					"target":{
						"node":7,
						"path":"translation"
					}
				},
				{
					"sampler":4,
					"target":{
						"node":7,
						"path":"rotation"
					}
				},
				{
					"sampler":5,
					"target":{
						"node":7,
						"path":"scale"
					}
				},
				{
					"sampler":6,
					"target":{
						"node":3,
						"path":"translation"
					}
				},
				{
					"sampler":7,
					"target":{
						"node":3,
						"path":"rotation"
					}
				},
				{
					"sampler":8,
					"target":{
						"node":3,
						"path":"scale"
					}
				},
				{
					"sampler":9,
					"target":{
						"node":0,
						"path":"translation"
					}
				},
				{
					"sampler":10,
					"target":{
						"node":0,
						"path":"rotation"
					}
				},
				{
					"sampler":11,
					"target":{
						"node":0,
						"path":"scale"
					}
				},
				{
					"sampler":12,
					"target":{
						"node":1,
						"path":"translation"
					}
				},
				{
					"sampler":13,
					"target":{
						"node":1,
						"path":"rotation"
					}
				},
				{
					"sampler":14,
					"target":{
						"node":1,
						"path":"scale"
					}
				},
				{
					"sampler":15,
					"target":{
						"node":2,
						"path":"translation"
					}
				},
				{
					"sampler":16,
					"target":{
						"node":2,
						"path":"rotation"
					}
				},
				{
					"sampler":17,
					"target":{
						"node":2,
						"path":"scale"
					}
				},
				{
					"sampler":18,
					"target":{
						"node":4,
						"path":"translation"
					}
				},
				{
					"sampler":19,
					"target":{
						"node":4,
						"path":"rotation"
					}
				},
				{
					"sampler":20,
					"target":{
						"node":4,
						"path":"scale"
					}
				},
				{
					"sampler":21,
					"target":{
						"node":5,
						"path":"translation"
					}
				},
				{
					"sampler":22,
					"target":{
						"node":5,
						"path":"rotation"
					}
				},
				{
					"sampler":23,
					"target":{
						"node":5,
						"path":"scale"
					}
				},
				{
					"sampler":24,
					"target":{
						"node":6,
						"path":"translation"
					}
				},
				{
					"sampler":25,
					"target":{
						"node":6,
						"path":"rotation"
					}
				},
				{
					"sampler":26,
					"target":{
						"node":6,
						"path":"scale"
					}
				}
			],
			"name":"\u6b69\u884c",
			"samplers":[
				{
					"input":7,
					"interpolation":"LINEAR",
					"output":8
				},
				{
					"input":9,
					"interpolation":"STEP",
					"output":10
				},
				{
					"input":9,
					"interpolation":"STEP",
					"output":11
				},
				{
					"input":9,
					"interpolation":"STEP",
					"output":12
				},
				{
					"input":7,
					"interpolation":"LINEAR",
					"output":13
				},
				{
					"input":9,
					"interpolation":"STEP",
					"output":11
				},
				{
					"input":9,
					"interpolation":"STEP",
					"output":14
				},
				{
					"input":9,
					"interpolation":"STEP",
					"output":15
				},
				{
					"input":9,
					"interpolation":"STEP",
					"output":11
				},
				{
					"input":9,
					"interpolation":"STEP",
					"output":16
				},
				{
					"input":9,
					"interpolation":"STEP",
					"output":17
				},
				{
					"input":9,
					"interpolation":"STEP",
					"output":11
				},
				{
					"input":9,
					"interpolation":"STEP",
					"output":18
				},
				{
					"input":7,
					"interpolation":"LINEAR",
					"output":19
				},
				{
					"input":9,
					"interpolation":"STEP",
					"output":20
				},
				{
					"input":9,
					"interpolation":"STEP",
					"output":21
				},
				{
					"input":7,
					"interpolation":"LINEAR",
					"output":22
				},
				{
					"input":9,
					"interpolation":"STEP",
					"output":23
				},
				{
					"input":9,
					"interpolation":"STEP",
					"output":24
				},
				{
					"input":7,
					"interpolation":"LINEAR",
					"output":25
				},
				{
					"input":9,
					"interpolation":"STEP",
					"output":11
				},
				{
					"input":9,
					"interpolation":"STEP",
					"output":26
				},
				{
					"input":7,
					"interpolation":"LINEAR",
					"output":27
				},
				{
					"input":9,
					"interpolation":"STEP",
					"output":11
				},
				{
					"input":9,
					"interpolation":"STEP",
					"output":28
				},
				{
					"input":7,
					"interpolation":"LINEAR",
					"output":29
				},
				{
					"input":9,
					"interpolation":"STEP",
					"output":30
				}
			]
		}
	],
	"materials":[
		{
			"doubleSided":true,
			"name":"\u732b_\u65e7UV\u30c6\u30af\u30b9\u30c1\u30e3",
			"pbrMetallicRoughness":{
				"baseColorTexture":{
					"index":0
				},
				"metallicFactor":0,
				"roughnessFactor":0.8500000238418579
			}
		}
	],
	"meshes":[
		{
			"name":"\u732b_Mesh",
			"primitives":[
				{
					"attributes":{
						"POSITION":0,
						"NORMAL":1,
						"TEXCOORD_0":2,
						"JOINTS_0":3,
						"WEIGHTS_0":4
					},
					"indices":5,
					"material":0
				}
			]
		}
	],
	"textures":[
		{
			"sampler":0,
			"source":0
		}
	],
	"images":[
		{
			"mimeType":"image/png",
			"name":"\u732b_\u65e7UV\u30c6\u30af\u30b9\u30c1\u30e3",
			"uri":"neko_old_uv_texture.png"
		}
	],
	"skins":[
		{
			"inverseBindMatrices":6,
			"joints":[
				8,
				7,
				3,
				0,
				1,
				2,
				4,
				5,
				6
			],
			"name":"\u732b_\u30ea\u30b0"
		}
	],
	"accessors":[
		{
			"bufferView":0,
			"componentType":5126,
			"count":1600,
			"max":[
				1.273148536682129,
				3.4000000953674316,
				0.5501142740249634
			],
			"min":[
				-1.0225446224212646,
				0,
				-0.6399999856948853
			],
			"type":"VEC3"
		},
		{
			"bufferView":1,
			"componentType":5126,
			"count":1600,
			"type":"VEC3"
		},
		{
			"bufferView":2,
			"componentType":5126,
			"count":1600,
			"type":"VEC2"
		},
		{
			"bufferView":3,
			"componentType":5121,
			"count":1600,
			"type":"VEC4"
		},
		{
			"bufferView":4,
			"componentType":5126,
			"count":1600,
			"type":"VEC4"
		},
		{
			"bufferView":5,
			"componentType":5123,
			"count":3912,
			"type":"SCALAR"
		},
		{
			"bufferView":6,
			"componentType":5126,
			"count":9,
			"type":"MAT4"
		},
		{
			"bufferView":7,
			"componentType":5126,
			"count":25,
			"max":[
				1.0416666666666667
			],
			"min":[
				0.041666666666666664
			],
			"type":"SCALAR"
		},
		{
			"bufferView":8,
			"componentType":5126,
			"count":25,
			"type":"VEC3"
		},
		{
			"bufferView":9,
			"componentType":5126,
			"count":2,
			"max":[
				1.0416666666666667
			],
			"min":[
				0.041666666666666664
			],
			"type":"SCALAR"
		},
		{
			"bufferView":10,
			"componentType":5126,
			"count":2,
			"type":"VEC4"
		},
		{
			"bufferView":11,
			"componentType":5126,
			"count":2,
			"type":"VEC3"
		},
		{
			"bufferView":12,
			"componentType":5126,
			"count":2,
			"type":"VEC3"
		},
		{
			"bufferView":13,
			"componentType":5126,
			"count":25,
			"type":"VEC4"
		},
		{
			"bufferView":14,
			"componentType":5126,
			"count":2,
			"type":"VEC3"
		},
		{
			"bufferView":15,
			"componentType":5126,
			"count":2,
			"type":"VEC4"
		},
		{
			"bufferView":16,
			"componentType":5126,
			"count":2,
			"type":"VEC3"
		},
		{
			"bufferView":17,
			"componentType":5126,
			"count":2,
			"type":"VEC4"
		},
		{
			"bufferView":18,
			"componentType":5126,
			"count":2,
			"type":"VEC3"
		},
		{
			"bufferView":19,
			"componentType":5126,
			"count":25,
			"type":"VEC4"
		},
		{
			"bufferView":20,
			"componentType":5126,
			"count":2,
			"type":"VEC3"
		},
		{
			"bufferView":21,
			"componentType":5126,
			"count":2,
			"type":"VEC3"
		},
		{
			"bufferView":22,
			"componentType":5126,
			"count":25,
			"type":"VEC4"
		},
		{
			"bufferView":23,
			"componentType":5126,
			"count":2,
			"type":"VEC3"
		},
		{
			"bufferView":24,
			"componentType":5126,
			"count":2,
			"type":"VEC3"
		},
		{
			"bufferView":25,
			"componentType":5126,
			"count":25,
			"type":"VEC4"
		},
		{
			"bufferView":26,
			"componentType":5126,
			"count":2,
			"type":"VEC3"
		},
		{
			"bufferView":27,
			"componentType":5126,
			"count":25,
			"type":"VEC4"
		},
		{
			"bufferView":28,
			"componentType":5126,
			"count":2,
			"type":"VEC3"
		},
		{
			"bufferView":29,
			"componentType":5126,
			"count":25,
			"type":"VEC4"
		},
		{
			"bufferView":30,
			"componentType":5126,
			"count":2,
			"type":"VEC3"
		}
	],
	"bufferViews":[
		{
			"buffer":0,
			"byteLength":19200,
			"byteOffset":0,
			"target":34962
		},
		{
			"buffer":0,
			"byteLength":19200,
			"byteOffset":19200,
			"target":34962
		},
		{
			"buffer":0,
			"byteLength":12800,
			"byteOffset":38400,
			"target":34962
		},
		{
			"buffer":0,
			"byteLength":6400,
			"byteOffset":51200,
			"target":34962
		},
		{
			"buffer":0,
			"byteLength":25600,
			"byteOffset":57600,
			"target":34962
		},
		{
			"buffer":0,
			"byteLength":7824,
			"byteOffset":83200,
			"target":34963
		},
		{
			"buffer":0,
			"byteLength":576,
			"byteOffset":91024
		},
		{
			"buffer":0,
			"byteLength":100,
			"byteOffset":91600
		},
		{
			"buffer":0,
			"byteLength":300,
			"byteOffset":91700
		},
		{
			"buffer":0,
			"byteLength":8,
			"byteOffset":92000
		},
		{
			"buffer":0,
			"byteLength":32,
			"byteOffset":92008
		},
		{
			"buffer":0,
			"byteLength":24,
			"byteOffset":92040
		},
		{
			"buffer":0,
			"byteLength":24,
			"byteOffset":92064
		},
		{
			"buffer":0,
			"byteLength":400,
			"byteOffset":92088
		},
		{
			"buffer":0,
			"byteLength":24,
			"byteOffset":92488
		},
		{
			"buffer":0,
			"byteLength":32,
			"byteOffset":92512
		},
		{
			"buffer":0,
			"byteLength":24,
			"byteOffset":92544
		},
		{
			"buffer":0,
			"byteLength":32,
			"byteOffset":92568
		},
		{
			"buffer":0,
			"byteLength":24,
			"byteOffset":92600
		},
		{
			"buffer":0,
			"byteLength":400,
			"byteOffset":92624
		},
		{
			"buffer":0,
			"byteLength":24,
			"byteOffset":93024
		},
		{
			"buffer":0,
			"byteLength":24,
			"byteOffset":93048
		},
		{
			"buffer":0,
			"byteLength":400,
			"byteOffset":93072
		},
		{
			"buffer":0,
			"byteLength":24,
			"byteOffset":93472
		},
		{
			"buffer":0,
			"byteLength":24,
			"byteOffset":93496
		},
		{
			"buffer":0,
			"byteLength":400,
			"byteOffset":93520
		},
		{
			"buffer":0,
			"byteLength":24,
			"byteOffset":93920
		},
		{
			"buffer":0,
			"byteLength":400,
			"byteOffset":93944
		},
		{
			"buffer":0,
			"byteLength":24,
			"byteOffset":94344
		},
		{
			"buffer":0,
			"byteLength":400,
			"byteOffset":94368
		},
		{
			"buffer":0,
			"byteLength":24,
			"byteOffset":94768
		}
	],
	"samplers":[
		{
			"magFilter":9728,
			"minFilter":9984
		}
	],
	"buffers":[
		{
			"byteLength":94792,
			"uri":"neko.bin"
		}
	]
}
